<?xml version="1.0" standalone="no"?>
<!DOCTYPE svg PUBLIC "-//W3C//DTD SVG 20010904//EN"
 "http://www.w3.org/TR/2001/REC-SVG-20010904/DTD/svg10.dtd">
<svg version="1.0" xmlns="http://www.w3.org/2000/svg"
 width="260.000000pt" height="260.000000pt" viewBox="0 0 260.000000 260.000000"
 preserveAspectRatio="xMidYMid meet">
<metadata>
Created by potrace 1.11, written by Peter Selinger 2001-2013
</metadata>
<g transform="translate(0.000000,260.000000) scale(0.100000,-0.100000)"
fill="#000000" stroke="none">
<path d="M0 1300 l0 -1300 1300 0 1300 0 0 1300 0 1300 -1300 0 -1300 0 0
-1300z m790 948 c18 -13 41 -38 51 -57 16 -30 31 -39 110 -68 153 -55 369
-165 458 -232 l24 -18 -33 -46 -33 -46 -61 35 c-92 54 -332 169 -407 195 l-66
23 -32 -27 c-18 -15 -41 -27 -51 -27 -16 0 -28 -28 -71 -162 -28 -90 -87 -273
-130 -407 -43 -135 -76 -248 -73 -252 2 -4 139 38 304 93 l300 100 11 41 c23
88 75 128 174 137 l59 5 183 255 c100 140 183 258 183 262 0 4 -87 8 -192 10
l-193 3 -145 55 -145 55 90 6 c50 4 201 7 336 8 l247 1 15 24 c51 77 188 71
238 -10 58 -94 -4 -221 -112 -229 l-41 -3 -184 -258 c-126 -176 -182 -263
-178 -273 4 -9 12 -37 17 -62 14 -64 -9 -125 -69 -178 l-44 -39 0 -321 c0
-176 2 -321 5 -321 2 0 156 112 342 250 l337 250 3 40 c2 23 7 50 13 60 9 17
1 33 -52 103 -34 45 -121 142 -193 215 -71 73 -131 135 -133 137 -8 8 52 85
66 85 23 0 309 -293 372 -382 40 -56 61 -77 78 -77 46 -2 99 -39 121 -84 25
-51 26 -76 7 -120 -29 -69 -112 -111 -177 -88 -31 11 -37 6 -370 -240 l-339
-251 0 -37 c0 -48 -34 -100 -80 -124 -43 -22 -111 -18 -149 10 -33 25 -61 79
-61 120 0 35 35 7 -451 366 -221 163 -227 167 -258 156 -102 -36 -211 71 -182
179 11 41 48 80 97 105 29 15 35 31 157 415 l128 399 -22 37 c-27 46 -23 133
7 167 54 62 135 77 194 37z"/>
<path d="M808 1132 c-159 -53 -288 -101 -288 -107 1 -5 152 -122 338 -258
l337 -249 3 329 c1 222 -1 329 -8 331 -6 2 -24 15 -39 28 -16 13 -35 24 -42
23 -8 0 -143 -44 -301 -97z"/>
</g>
</svg>
