<?xml version="1.0" encoding="utf-8"?>
<!-- Generator: Adobe Illustrator 16.0.4, SVG Export Plug-In . SVG Version: 6.00 Build 0)  -->
<!DOCTYPE svg PUBLIC "-//W3C//DTD SVG 1.1//EN" "http://www.w3.org/Graphics/SVG/1.1/DTD/svg11.dtd">
<svg version="1.1" id="Layer_1" xmlns="http://www.w3.org/2000/svg" xmlns:xlink="http://www.w3.org/1999/xlink" x="0px" y="0px"
	 width="144px" height="28px" viewBox="0 0 144 28" enable-background="new 0 0 144 28" xml:space="preserve">
<g id="mono_orange_5_">
	<g id="name_9_">
		<g>
			<path fill="#44BAC1" d="M41,12v6.1h-2.4V6.9H41v2c0.4-0.7,0.9-1.2,1.6-1.6c0.7-0.4,1.4-0.6,2.2-0.6c1.3,0,2.3,0.4,3.1,1.2
				s1.2,1.9,1.2,3.3v6.9h-2.4v-6.2c0-2.1-0.9-3.1-2.6-3.1c-0.8,0-1.5,0.3-2.1,0.8C41.3,10.2,41,11,41,12z"/>
			<path fill="#44BAC1" d="M60.7,16.6c-1.1,1.1-2.5,1.7-4.2,1.7c-1.7,0-3.1-0.6-4.2-1.7c-1.1-1.1-1.7-2.5-1.7-4.1s0.6-3,1.7-4.1
				c1.1-1.1,2.5-1.7,4.2-1.7c1.7,0,3.1,0.6,4.2,1.7c1.1,1.1,1.7,2.5,1.7,4.1S61.9,15.5,60.7,16.6z M54,15.1c0.7,0.7,1.5,1,2.5,1
				s1.9-0.3,2.5-1c0.7-0.7,1-1.6,1-2.6s-0.3-2-1-2.6c-0.7-0.7-1.5-1-2.5-1s-1.9,0.3-2.5,1s-1,1.6-1,2.6S53.3,14.4,54,15.1z"/>
			<path fill="#44BAC1" d="M65.1,16.6c-1.1-1.1-1.6-2.5-1.6-4.2s0.5-3.1,1.6-4.2c1.1-1,2.4-1.6,3.9-1.6c1.5,0,2.7,0.6,3.6,1.9V2.4
				H75v15.6h-2.4v-1.7c-0.9,1.2-2.1,1.9-3.8,1.9C67.4,18.2,66.2,17.7,65.1,16.6z M65.9,12.5c0,1.1,0.3,1.9,1,2.6
				c0.7,0.7,1.5,1,2.4,1s1.7-0.3,2.4-1c0.6-0.7,1-1.6,1-2.6s-0.3-2-1-2.7c-0.6-0.7-1.4-1.1-2.4-1.1c-0.9,0-1.7,0.4-2.4,1.1
				C66.2,10.6,65.9,11.5,65.9,12.5z"/>
			<path fill="#44BAC1" d="M86.6,18.1h-2.1v-1.5c-0.9,1.1-2.2,1.7-3.7,1.7c-1.2,0-2.1-0.3-2.9-1s-1.1-1.5-1.1-2.6
				c0-1.1,0.4-1.9,1.2-2.5c0.8-0.5,1.9-0.8,3.3-0.8h3.1v-0.4c0-1.5-0.8-2.2-2.5-2.2c-1,0-2.1,0.4-3.2,1.1l-1.1-1.5
				c1.4-1.1,2.9-1.6,4.6-1.6c1.3,0,2.4,0.3,3.2,1c0.8,0.7,1.3,1.7,1.3,3.1V18.1z M84.3,13.9V13h-2.7c-1.7,0-2.5,0.5-2.5,1.6
				c0,0.5,0.2,1,0.6,1.3s1,0.4,1.8,0.4c0.8,0,1.4-0.2,2-0.6C84,15.2,84.3,14.6,84.3,13.9z"/>
			<path fill="#44BAC1" d="M91.4,18.1h-2.4V2.4h2.4V18.1z"/>
			<path fill="#44BAC1" d="M104.7,3.4v2.3h-7.9v3.9h7.1v2.2h-7.1v3.9h8.1v2.3H94.4V3.4H104.7z"/>
			<path fill="#44BAC1" d="M107.8,16.6c-1.1-1.1-1.6-2.5-1.6-4.2s0.5-3.1,1.6-4.2c1.1-1,2.4-1.6,3.9-1.6c1.5,0,2.7,0.6,3.6,1.9V2.4
				h2.4v15.6h-2.4v-1.7c-0.9,1.2-2.1,1.9-3.8,1.9C110.1,18.2,108.9,17.7,107.8,16.6z M108.6,12.5c0,1.1,0.3,1.9,1,2.6
				c0.7,0.7,1.5,1,2.4,1s1.7-0.3,2.4-1c0.6-0.7,1-1.6,1-2.6s-0.3-2-1-2.7c-0.6-0.7-1.4-1.1-2.4-1.1s-1.7,0.4-2.4,1.1
				C108.9,10.6,108.6,11.5,108.6,12.5z"/>
			<path fill="#44BAC1" d="M130.6,6.9v9.8c0,2-0.5,3.5-1.6,4.5c-1.1,1-2.5,1.5-4.1,1.5s-3.2-0.5-4.6-1.6l1.1-1.8
				c1.1,0.8,2.2,1.2,3.3,1.2s2-0.3,2.7-0.9c0.7-0.6,1-1.5,1-2.8v-1.4c-0.4,0.7-0.9,1.2-1.5,1.6c-0.7,0.4-1.4,0.6-2.2,0.6
				c-1.5,0-2.7-0.5-3.7-1.6s-1.4-2.3-1.4-3.9s0.5-2.8,1.4-3.9c1-1,2.2-1.6,3.7-1.6s2.7,0.6,3.6,1.8V6.9H130.6z M121.9,12
				c0,0.9,0.3,1.7,0.9,2.4c0.6,0.7,1.3,1,2.3,1c1,0,1.7-0.3,2.3-1c0.6-0.6,0.9-1.4,0.9-2.4s-0.3-1.8-0.9-2.4c-0.6-0.7-1.4-1-2.3-1
				c-1,0-1.7,0.3-2.3,1S121.9,11.1,121.9,12z"/>
			<path fill="#44BAC1" d="M143.6,13.5h-8.8c0.1,0.8,0.4,1.5,1.1,2c0.7,0.5,1.5,0.7,2.4,0.7c1.4,0,2.5-0.4,3.2-1.3l1.3,1.5
				c-1.2,1.2-2.8,1.9-4.7,1.9c-1.6,0-2.9-0.5-4-1.6c-1.1-1-1.7-2.5-1.7-4.2c0-1.8,0.6-3.2,1.7-4.2c1.1-1,2.4-1.6,4-1.6
				c1.5,0,2.8,0.5,3.9,1.4c1.1,0.9,1.6,2.2,1.6,3.8V13.5z M134.8,11.7h6.4c0-0.9-0.3-1.7-0.9-2.2c-0.6-0.5-1.3-0.8-2.2-0.8
				c-0.9,0-1.6,0.3-2.3,0.8C135.2,10,134.8,10.8,134.8,11.7z"/>
		</g>
	</g>
	<g id="icon_5_">
		<defs>
			<filter id="Adobe_OpacityMaskFilter" filterUnits="userSpaceOnUse" x="6.6" y="1.2" width="16.2" height="1.7">
				<feFlood  style="flood-color:white;flood-opacity:1" result="back"/>
				<feBlend  in="SourceGraphic" in2="back" mode="normal"/>
			</filter>
		</defs>
		<mask maskUnits="userSpaceOnUse" x="6.6" y="1.2" width="16.2" height="1.7" id="SVGID_1_">
			<g filter="url(#Adobe_OpacityMaskFilter)">
				<defs>
					<filter id="Adobe_OpacityMaskFilter_1_" filterUnits="userSpaceOnUse" x="6.6" y="1.2" width="16.2" height="1.7">
						<feFlood  style="flood-color:white;flood-opacity:1" result="back"/>
						<feBlend  in="SourceGraphic" in2="back" mode="normal"/>
					</filter>
				</defs>
				<mask maskUnits="userSpaceOnUse" x="6.6" y="1.2" width="16.2" height="1.7" id="SVGID_1_">
				</mask>
				
					<linearGradient id="SVGID_2_" gradientUnits="userSpaceOnUse" x1="18.2314" y1="4.1562" x2="20.395" y2="-1.788" gradientTransform="matrix(1 0 0 1 -4.5649 0.6797)">
					<stop  offset="0.25" style="stop-color:#000000"/>
					<stop  offset="0.55" style="stop-color:#FFFFFF"/>
				</linearGradient>
				<polygon mask="url(#SVGID_1_)" fill="url(#SVGID_2_)" points="6.6,1.2 7.8,2.9 22.8,2.9 22.8,1.2 				"/>
			</g>
		</mask>
		<polygon fill="#44BAC1" points="6.6,1.2 7.8,2.9 22.8,2.9 22.8,1.2 		"/>
		<defs>
			<filter id="Adobe_OpacityMaskFilter_2_" filterUnits="userSpaceOnUse" x="7.1" y="1.2" width="21.2" height="16">
				<feFlood  style="flood-color:white;flood-opacity:1" result="back"/>
				<feBlend  in="SourceGraphic" in2="back" mode="normal"/>
			</filter>
		</defs>
		<mask maskUnits="userSpaceOnUse" x="7.1" y="1.2" width="21.2" height="16" id="SVGID_3_">
			<g filter="url(#Adobe_OpacityMaskFilter_2_)">
				<defs>
					<filter id="Adobe_OpacityMaskFilter_3_" filterUnits="userSpaceOnUse" x="7.1" y="1.2" width="21.2" height="16">
						<feFlood  style="flood-color:white;flood-opacity:1" result="back"/>
						<feBlend  in="SourceGraphic" in2="back" mode="normal"/>
					</filter>
				</defs>
				<mask maskUnits="userSpaceOnUse" x="7.1" y="1.2" width="21.2" height="16" id="SVGID_3_">
				</mask>
				
					<linearGradient id="SVGID_4_" gradientUnits="userSpaceOnUse" x1="43.2402" y1="9.9688" x2="64.0881" y2="25.1156" gradientTransform="matrix(1 0 0 1 -35.5444 -9.1763)">
					<stop  offset="0.35" style="stop-color:#FFFFFF"/>
					<stop  offset="0.47" style="stop-color:#000000"/>
					<stop  offset="0.53" style="stop-color:#000000"/>
					<stop  offset="0.65" style="stop-color:#FFFFFF"/>
				</linearGradient>
				<path mask="url(#SVGID_3_)" fill="url(#SVGID_4_)" d="M26.9,17.2C23.2,10.7,14.4,4.3,7.1,2.8l0.3-1.7
					c7.7,1.5,17.1,8.4,20.9,15.2L26.9,17.2z"/>
			</g>
		</mask>
		<path fill="#44BAC1" d="M26.9,17.2C23.2,10.7,14.4,4.3,7.1,2.8l0.3-1.7c7.7,1.5,17.1,8.4,20.9,15.2L26.9,17.2z"/>
		<polygon fill="#44BAC1" points="6.6,1.2 1.4,17.1 3.4,16.5 7.8,2.9 		"/>
		<polygon fill="#44BAC1" points="3.4,16.5 1.4,17.1 15,27 15,24.9 		"/>
		<polygon fill="#44BAC1" points="27.1,16.1 15,24.9 15,27 28.1,17.5 		"/>
		<rect x="14.1" y="12.7" fill="#44BAC1" width="1.7" height="13.2"/>
		<rect x="7.9" y="8.2" transform="matrix(0.309 0.9511 -0.9511 0.309 20.0743 1.9299)" fill="#44BAC1" width="1.7" height="13.2"/>
		<rect x="18" y="0.8" transform="matrix(0.809 0.5878 -0.5878 0.809 7.9502 -9.6821)" fill="#44BAC1" width="1.7" height="13.2"/>
		<circle fill="#44BAC1" cx="15" cy="12.7" r="2.6"/>
		<circle fill="#44BAC1" cx="22.8" cy="2" r="2"/>
		<circle fill="#44BAC1" cx="7.2" cy="2" r="2"/>
		<circle fill="#44BAC1" cx="2.4" cy="16.8" r="2"/>
		<circle fill="#44BAC1" cx="15" cy="26" r="2"/>
		<circle fill="#44BAC1" cx="27.6" cy="16.8" r="2"/>
	</g>
</g>
</svg>
