<?xml version="1.0" encoding="utf-8"?>
<!-- Generator: Adobe Illustrator 16.0.4, SVG Export Plug-In . SVG Version: 6.00 Build 0)  -->
<!DOCTYPE svg PUBLIC "-//W3C//DTD SVG 1.1//EN" "http://www.w3.org/Graphics/SVG/1.1/DTD/svg11.dtd">
<svg version="1.1" id="Layer_1" xmlns="http://www.w3.org/2000/svg" xmlns:xlink="http://www.w3.org/1999/xlink" x="0px" y="0px"
	 width="205px" height="40px" viewBox="0 0 205 40" enable-background="new 0 0 205 40" xml:space="preserve">
<g id="mono_orange_1_">
	<g id="name_1_">
		<g>
			<path fill="#44BAC1" d="M58.1,17.2v8.7h-3.4v-16h3.4v2.9c0.5-1,1.3-1.8,2.2-2.3c1-0.6,2-0.8,3.1-0.8c1.8,0,3.3,0.6,4.4,1.7
				c1.1,1.1,1.7,2.7,1.7,4.8v9.8h-3.4V17c0-3-1.2-4.4-3.7-4.4c-1.2,0-2.2,0.4-3,1.2S58.1,15.7,58.1,17.2z"/>
			<path fill="#44BAC1" d="M86.4,23.7c-1.6,1.6-3.6,2.4-6,2.4c-2.4,0-4.4-0.8-6-2.4c-1.6-1.6-2.4-3.5-2.4-5.9c0-2.3,0.8-4.3,2.4-5.9
				c1.6-1.6,3.6-2.4,6-2.4c2.4,0,4.4,0.8,6,2.4c1.6,1.6,2.4,3.5,2.4,5.9C88.8,20.1,88,22.1,86.4,23.7z M76.8,21.6
				c1,1,2.2,1.5,3.6,1.5c1.5,0,2.7-0.5,3.6-1.5c1-1,1.4-2.2,1.4-3.8S85,15,84,14s-2.2-1.5-3.6-1.5c-1.5,0-2.7,0.5-3.6,1.5
				s-1.4,2.2-1.4,3.8S75.8,20.6,76.8,21.6z"/>
			<path fill="#44BAC1" d="M92.7,23.8c-1.5-1.5-2.3-3.5-2.3-6c0-2.5,0.8-4.5,2.3-6c1.5-1.5,3.4-2.2,5.5-2.2s3.9,0.9,5.2,2.7V3.5h3.4
				v22.3h-3.4v-2.4c-1.2,1.8-3.1,2.6-5.4,2.6C95.9,26.1,94.2,25.3,92.7,23.8z M93.8,17.9c0,1.5,0.5,2.8,1.5,3.7c1,1,2.1,1.4,3.5,1.4
				c1.3,0,2.4-0.5,3.4-1.5c0.9-1,1.4-2.2,1.4-3.7c0-1.5-0.5-2.8-1.4-3.8c-0.9-1-2.1-1.5-3.4-1.5s-2.5,0.5-3.5,1.5
				C94.3,15.1,93.8,16.4,93.8,17.9z"/>
			<path fill="#44BAC1" d="M123.4,25.8h-3.1v-2.1c-1.3,1.6-3.1,2.4-5.3,2.4c-1.7,0-3-0.5-4.1-1.4c-1.1-0.9-1.6-2.2-1.6-3.8
				c0-1.6,0.6-2.8,1.7-3.5c1.2-0.8,2.7-1.2,4.7-1.2h4.4v-0.6c0-2.1-1.2-3.2-3.6-3.2c-1.5,0-3,0.5-4.6,1.6l-1.5-2.1
				c1.9-1.5,4.2-2.3,6.6-2.3c1.9,0,3.4,0.5,4.6,1.4c1.2,1,1.8,2.5,1.8,4.5V25.8z M120,19.9v-1.4h-3.8c-2.4,0-3.6,0.8-3.6,2.3
				c0,0.8,0.3,1.4,0.9,1.8c0.6,0.4,1.4,0.6,2.5,0.6c1.1,0,2-0.3,2.8-0.9C119.6,21.7,120,20.9,120,19.9z"/>
			<path fill="#44BAC1" d="M130.3,25.8h-3.4V3.5h3.4V25.8z"/>
			<path fill="#44BAC1" d="M149.2,4.8v3.3H138v5.6h10.1v3.2H138v5.6h11.6v3.3h-15.1v-21H149.2z"/>
			<path fill="#44BAC1" d="M153.7,23.8c-1.5-1.5-2.3-3.5-2.3-6c0-2.5,0.8-4.5,2.3-6c1.5-1.5,3.4-2.2,5.5-2.2c2.1,0,3.9,0.9,5.2,2.7
				V3.5h3.4v22.3h-3.4v-2.4c-1.2,1.8-3.1,2.6-5.4,2.6C156.9,26.1,155.2,25.3,153.7,23.8z M154.8,17.9c0,1.5,0.5,2.8,1.5,3.7
				c1,1,2.1,1.4,3.5,1.4s2.4-0.5,3.4-1.5c0.9-1,1.4-2.2,1.4-3.7c0-1.5-0.5-2.8-1.4-3.8c-0.9-1-2.1-1.5-3.4-1.5s-2.5,0.5-3.5,1.5
				S154.8,16.4,154.8,17.9z"/>
			<path fill="#44BAC1" d="M186.3,9.8v14c0,2.8-0.8,5-2.3,6.4c-1.5,1.4-3.5,2.1-5.9,2.1s-4.6-0.8-6.5-2.3l1.6-2.6
				c1.6,1.2,3.1,1.8,4.7,1.8s2.9-0.4,3.8-1.2c0.9-0.8,1.4-2.1,1.4-3.9v-2c-0.5,0.9-1.2,1.7-2.2,2.3c-0.9,0.6-2,0.8-3.1,0.8
				c-2.1,0-3.9-0.7-5.2-2.2s-2-3.3-2-5.5s0.7-4.1,2-5.5c1.4-1.5,3.1-2.2,5.2-2.2c2.1,0,3.8,0.9,5.2,2.6V9.8H186.3z M173.8,17.2
				c0,1.3,0.4,2.4,1.2,3.4c0.8,1,1.9,1.4,3.3,1.4c1.4,0,2.5-0.5,3.3-1.4c0.9-0.9,1.3-2.1,1.3-3.4c0-1.4-0.4-2.5-1.3-3.5
				c-0.9-1-2-1.4-3.3-1.4s-2.5,0.5-3.3,1.5C174.2,14.7,173.8,15.9,173.8,17.2z"/>
			<path fill="#44BAC1" d="M204.8,19.3h-12.5c0.1,1.2,0.6,2.1,1.6,2.8s2.1,1.1,3.4,1.1c2,0,3.5-0.6,4.6-1.9l1.9,2.1
				c-1.7,1.8-4,2.7-6.7,2.7c-2.2,0-4.2-0.7-5.7-2.2c-1.6-1.5-2.4-3.5-2.4-6c0-2.5,0.8-4.5,2.4-6c1.6-1.5,3.5-2.2,5.7-2.2
				s4,0.7,5.6,2c1.5,1.3,2.3,3.1,2.3,5.4V19.3z M192.3,16.6h9.2c0-1.3-0.4-2.4-1.3-3.1c-0.8-0.7-1.9-1.1-3.1-1.1
				c-1.2,0-2.3,0.4-3.3,1.1C192.8,14.3,192.3,15.4,192.3,16.6z"/>
		</g>
	</g>
	<g id="icon_1_">
		<defs>
			<filter id="Adobe_OpacityMaskFilter" filterUnits="userSpaceOnUse" x="9.1" y="1.7" width="23.1" height="2.4">
				<feFlood  style="flood-color:white;flood-opacity:1" result="back"/>
				<feBlend  in="SourceGraphic" in2="back" mode="normal"/>
			</filter>
		</defs>
		<mask maskUnits="userSpaceOnUse" x="9.1" y="1.7" width="23.1" height="2.4" id="SVGID_1_">
			<g filter="url(#Adobe_OpacityMaskFilter)">
				<defs>
					<filter id="Adobe_OpacityMaskFilter_1_" filterUnits="userSpaceOnUse" x="9.1" y="1.7" width="23.1" height="2.4">
						<feFlood  style="flood-color:white;flood-opacity:1" result="back"/>
						<feBlend  in="SourceGraphic" in2="back" mode="normal"/>
					</filter>
				</defs>
				<mask maskUnits="userSpaceOnUse" x="9.1" y="1.7" width="23.1" height="2.4" id="SVGID_1_">
				</mask>
				
					<linearGradient id="SVGID_2_" gradientUnits="userSpaceOnUse" x1="23.7324" y1="6.2285" x2="26.8236" y2="-2.2643" gradientTransform="matrix(1 0 0 1 -4.5649 0.6797)">
					<stop  offset="0.25" style="stop-color:#000000"/>
					<stop  offset="0.55" style="stop-color:#FFFFFF"/>
				</linearGradient>
				<polygon mask="url(#SVGID_1_)" fill="url(#SVGID_2_)" points="9.1,1.7 10.9,4.1 32.2,4.1 32.2,1.7 				"/>
			</g>
		</mask>
		<polygon fill="#44BAC1" points="9.1,1.7 10.9,4.1 32.2,4.1 32.2,1.7 		"/>
		<defs>
			<filter id="Adobe_OpacityMaskFilter_2_" filterUnits="userSpaceOnUse" x="9.8" y="1.7" width="30.3" height="22.9">
				<feFlood  style="flood-color:white;flood-opacity:1" result="back"/>
				<feBlend  in="SourceGraphic" in2="back" mode="normal"/>
			</filter>
		</defs>
		<mask maskUnits="userSpaceOnUse" x="9.8" y="1.7" width="30.3" height="22.9" id="SVGID_3_">
			<g filter="url(#Adobe_OpacityMaskFilter_2_)">
				<defs>
					<filter id="Adobe_OpacityMaskFilter_3_" filterUnits="userSpaceOnUse" x="9.8" y="1.7" width="30.3" height="22.9">
						<feFlood  style="flood-color:white;flood-opacity:1" result="back"/>
						<feBlend  in="SourceGraphic" in2="back" mode="normal"/>
					</filter>
				</defs>
				<mask maskUnits="userSpaceOnUse" x="9.8" y="1.7" width="30.3" height="22.9" id="SVGID_3_">
				</mask>
				
					<linearGradient id="SVGID_4_" gradientUnits="userSpaceOnUse" x1="46.1826" y1="10.3086" x2="75.9649" y2="31.9467" gradientTransform="matrix(1 0 0 1 -35.5444 -9.1763)">
					<stop  offset="0.35" style="stop-color:#FFFFFF"/>
					<stop  offset="0.47" style="stop-color:#000000"/>
					<stop  offset="0.53" style="stop-color:#000000"/>
					<stop  offset="0.65" style="stop-color:#FFFFFF"/>
				</linearGradient>
				<path mask="url(#SVGID_3_)" fill="url(#SVGID_4_)" d="M38,24.6C32.8,15.3,20.2,6.1,9.8,4l0.5-2.4c11,2.2,24.4,11.9,29.9,21.7
					L38,24.6z"/>
			</g>
		</mask>
		<path fill="#44BAC1" d="M38,24.6C32.8,15.3,20.2,6.1,9.8,4l0.5-2.4c11,2.2,24.4,11.9,29.9,21.7L38,24.6z"/>
		<polygon fill="#44BAC1" points="9.1,1.7 1.7,24.5 4.5,23.6 10.9,4.1 		"/>
		<polygon fill="#44BAC1" points="4.5,23.6 1.7,24.5 21.1,38.6 21.1,35.6 		"/>
		<polygon fill="#44BAC1" points="38.3,23 21.1,35.6 21.1,38.6 39.7,25 		"/>
		<rect x="19.8" y="18.2" fill="#44BAC1" width="2.4" height="18.9"/>
		
			<rect x="10.9" y="11.7" transform="matrix(0.309 0.9511 -0.9511 0.309 28.4318 3.0984)" fill="#44BAC1" width="2.4" height="18.9"/>
		
			<rect x="25.4" y="1.1" transform="matrix(0.8091 0.5877 -0.5877 0.8091 11.287 -13.6204)" fill="#44BAC1" width="2.4" height="18.9"/>
		<circle fill="#44BAC1" cx="21.1" cy="18.2" r="3.7"/>
		<circle fill="#44BAC1" cx="32.2" cy="2.9" r="2.9"/>
		<circle fill="#44BAC1" cx="10" cy="2.9" r="2.9"/>
		<circle fill="#44BAC1" cx="3.1" cy="24" r="2.9"/>
		<circle fill="#44BAC1" cx="21.1" cy="37.1" r="2.9"/>
		<circle fill="#44BAC1" cx="39" cy="24" r="2.9"/>
	</g>
</g>
</svg>
